<svg xmlns="http://www.w3.org/2000/svg" width="175.1" height="153.8" viewBox="0 0 175.1 153.8">
  <g id="Group_451" data-name="Group 451" transform="translate(-13.2 -5.5)">
    <circle id="Ellipse_71" data-name="Ellipse 71" cx="2" cy="2" r="2" transform="translate(43.3 155.3)" fill="#fff"/>
    <circle id="Ellipse_72" data-name="Ellipse 72" cx="2" cy="2" r="2" transform="translate(184.3 117.5)" fill="#fff"/>
    <circle id="Ellipse_73" data-name="Ellipse 73" cx="2" cy="2" r="2" transform="translate(169.3 61.5)" fill="#fff"/>
    <circle id="Ellipse_74" data-name="Ellipse 74" cx="2" cy="2" r="2" transform="translate(28.2 99.3)" fill="#fff"/>
    <circle id="Ellipse_75" data-name="Ellipse 75" cx="2" cy="2" r="2" transform="translate(154.3 5.5)" fill="#fff"/>
    <circle id="Ellipse_76" data-name="Ellipse 76" cx="2" cy="2" r="2" transform="translate(13.2 43.2)" fill="#fff"/>
    <circle id="Ellipse_77" data-name="Ellipse 77" cx="2" cy="2" r="2" transform="translate(60.2 30.6)" fill="#fff"/>
    <circle id="Ellipse_78" data-name="Ellipse 78" cx="2" cy="2" r="2" transform="translate(107.2 18)" fill="#fff"/>
    <circle id="Ellipse_79" data-name="Ellipse 79" cx="2" cy="2" r="2" transform="translate(90.3 142.7)" fill="#fff"/>
    <circle id="Ellipse_80" data-name="Ellipse 80" cx="2" cy="2" r="2" transform="translate(137.3 130.1)" fill="#fff"/>
    <g id="Group_382" data-name="Group 382">
      <line id="Line_98" data-name="Line 98" y1="31.1" x2="115.9" transform="translate(34.1 34.2)" fill="none" stroke="#fff" stroke-miterlimit="10" stroke-width="2"/>
      <line id="Line_99" data-name="Line 99" y1="20.7" x2="77.2" transform="translate(56 49.1)" fill="none" stroke="#fff" stroke-miterlimit="10" stroke-width="2"/>
    </g>
    <g id="Group_383" data-name="Group 383">
      <path id="Path_782" data-name="Path 782" d="M51.1,130.6,75.7,88a3.3,3.3,0,0,1,4.6-1.2l42.6,24.6" fill="none" stroke="#fff" stroke-miterlimit="10" stroke-width="2.001"/>
      <path id="Path_783" data-name="Path 783" d="M91.8,93.5l4-6.9,10.6-18.4A3.3,3.3,0,0,1,111,67l16.2,9.3,40.2,23.2" fill="none" stroke="#fff" stroke-miterlimit="10" stroke-width="2.001"/>
      <path id="Path_784" data-name="Path 784" d="M95.9,86.5l8.1,6.9,8.4-12.7,16.4,8.9L127.2,76" fill="none" stroke="#fff" stroke-miterlimit="10" stroke-width="2.001"/>
      <path id="Path_785" data-name="Path 785" d="M68.4,101.1l6.2,7.3,7-11.4L95,105.6,92.4,93.8" fill="none" stroke="#fff" stroke-miterlimit="10" stroke-width="2.001"/>
    </g>
  </g>
</svg>
