<svg xmlns="http://www.w3.org/2000/svg" width="145.496" height="129.423" viewBox="0 0 145.496 129.423">
  <g id="Group_454" data-name="Group 454" transform="translate(-32.643 -25.534)">
    <g id="Group_328" data-name="Group 328">
      <path id="Path_689" data-name="Path 689" d="M62.9,82.3l-8.7,2.3a3.071,3.071,0,0,1-3.7-2.1l-2.3-8.7a3.071,3.071,0,0,1,2.1-3.7L59,67.8a3.071,3.071,0,0,1,3.7,2.1L65,78.6A2.907,2.907,0,0,1,62.9,82.3Z" fill="none" stroke="#fff" stroke-miterlimit="10" stroke-width="2"/>
      <path id="Path_690" data-name="Path 690" d="M83,76.9l-8.7,2.3a3.071,3.071,0,0,1-3.7-2.1l-2.3-8.7a3.071,3.071,0,0,1,2.1-3.7l8.7-2.3a3.071,3.071,0,0,1,3.7,2.1l2.3,8.7A2.907,2.907,0,0,1,83,76.9Z" fill="none" stroke="#fff" stroke-miterlimit="10" stroke-width="2"/>
      <path id="Path_691" data-name="Path 691" d="M103.2,71.5l-8.7,2.3a3.071,3.071,0,0,1-3.7-2.1L88.5,63a3.071,3.071,0,0,1,2.1-3.7L99.3,57a3.071,3.071,0,0,1,3.7,2.1l2.3,8.7A2.979,2.979,0,0,1,103.2,71.5Z" fill="none" stroke="#fff" stroke-miterlimit="10" stroke-width="2"/>
      <path id="Path_692" data-name="Path 692" d="M123.3,66.2l-8.7,2.3a3.071,3.071,0,0,1-3.7-2.1l-2.3-8.7a3.071,3.071,0,0,1,2.1-3.7l8.7-2.3a3.071,3.071,0,0,1,3.7,2.1l2.3,8.7A3.071,3.071,0,0,1,123.3,66.2Z" fill="none" stroke="#fff" stroke-miterlimit="10" stroke-width="2"/>
      <path id="Path_693" data-name="Path 693" d="M143.4,60.8l-8.7,2.3A3.071,3.071,0,0,1,131,61l-2.3-8.7a3.071,3.071,0,0,1,2.1-3.7l8.7-2.3a3.071,3.071,0,0,1,3.7,2.1l2.3,8.7A2.99,2.99,0,0,1,143.4,60.8Z" fill="none" stroke="#fff" stroke-miterlimit="10" stroke-width="2"/>
      <path id="Path_694" data-name="Path 694" d="M163.5,55.4l-8.7,2.3a3.071,3.071,0,0,1-3.7-2.1l-2.3-8.7a3.071,3.071,0,0,1,2.1-3.7l8.7-2.3a3.071,3.071,0,0,1,3.7,2.1l2.3,8.7A2.99,2.99,0,0,1,163.5,55.4Z" fill="none" stroke="#fff" stroke-miterlimit="10" stroke-width="2"/>
      <path id="Path_695" data-name="Path 695" d="M48.5,109l-8.7,2.3a3.071,3.071,0,0,1-3.7-2.1l-2.3-8.7a3.071,3.071,0,0,1,2.1-3.7l8.7-2.3a3.071,3.071,0,0,1,3.7,2.1l2.3,8.7A3.071,3.071,0,0,1,48.5,109Z" fill="none" stroke="#fff" stroke-miterlimit="10" stroke-width="2"/>
      <path id="Path_696" data-name="Path 696" d="M68.6,103.6l-8.7,2.3a3.071,3.071,0,0,1-3.7-2.1l-2.3-8.7A3.071,3.071,0,0,1,56,91.4l8.7-2.3a3.071,3.071,0,0,1,3.7,2.1l2.3,8.7A2.99,2.99,0,0,1,68.6,103.6Z" fill="none" stroke="#fff" stroke-miterlimit="10" stroke-width="2"/>
      <path id="Path_697" data-name="Path 697" d="M88.7,98.2,80,100.5a3.071,3.071,0,0,1-3.7-2.1L74,89.7A3.071,3.071,0,0,1,76.1,86l8.7-2.3a3.071,3.071,0,0,1,3.7,2.1l2.3,8.7A2.948,2.948,0,0,1,88.7,98.2Z" fill="none" stroke="#fff" stroke-miterlimit="10" stroke-width="2"/>
      <path id="Path_698" data-name="Path 698" d="M108.9,92.8l-8.7,2.3A3.071,3.071,0,0,1,96.5,93l-2.3-8.7a3.071,3.071,0,0,1,2.1-3.7l8.7-2.3a3.071,3.071,0,0,1,3.7,2.1l2.3,8.7A3.025,3.025,0,0,1,108.9,92.8Z" fill="none" stroke="#fff" stroke-miterlimit="10" stroke-width="2"/>
      <path id="Path_699" data-name="Path 699" d="M129,87.4l-8.7,2.3a3.071,3.071,0,0,1-3.7-2.1l-2.3-8.7a3.071,3.071,0,0,1,2.1-3.7l8.7-2.3a3.071,3.071,0,0,1,3.7,2.1l2.3,8.7A3.025,3.025,0,0,1,129,87.4Z" fill="none" stroke="#fff" stroke-miterlimit="10" stroke-width="2"/>
      <path id="Path_700" data-name="Path 700" d="M149.1,82l-8.7,2.3a3.071,3.071,0,0,1-3.7-2.1l-2.3-8.7a3.071,3.071,0,0,1,2.1-3.7l8.7-2.3a3.071,3.071,0,0,1,3.7,2.1l2.3,8.7A3.025,3.025,0,0,1,149.1,82Z" fill="none" stroke="#fff" stroke-miterlimit="10" stroke-width="2"/>
      <path id="Path_701" data-name="Path 701" d="M169.2,76.6l-8.7,2.3a3.071,3.071,0,0,1-3.7-2.1l-2.3-8.7a3.071,3.071,0,0,1,2.1-3.7l8.7-2.3a3.071,3.071,0,0,1,3.7,2.1l2.3,8.7A2.948,2.948,0,0,1,169.2,76.6Z" fill="none" stroke="#fff" stroke-miterlimit="10" stroke-width="2"/>
      <path id="Path_702" data-name="Path 702" d="M54.2,130.2l-8.7,2.3a3.071,3.071,0,0,1-3.7-2.1l-2.3-8.7a3.071,3.071,0,0,1,2.1-3.7l8.7-2.3a3.071,3.071,0,0,1,3.7,2.1l2.3,8.7A3.025,3.025,0,0,1,54.2,130.2Z" fill="none" stroke="#fff" stroke-miterlimit="10" stroke-width="2"/>
      <path id="Path_703" data-name="Path 703" d="M74.3,124.8l-8.7,2.3a3.071,3.071,0,0,1-3.7-2.1l-2.3-8.7a3.071,3.071,0,0,1,2.1-3.7l8.7-2.3a3.071,3.071,0,0,1,3.7,2.1l2.3,8.7A2.979,2.979,0,0,1,74.3,124.8Z" fill="none" stroke="#fff" stroke-miterlimit="10" stroke-width="2"/>
      <path id="Path_704" data-name="Path 704" d="M94.4,119.4l-8.7,2.3a3.071,3.071,0,0,1-3.7-2.1l-2.3-8.7a3.071,3.071,0,0,1,2.1-3.7l8.7-2.3a3.071,3.071,0,0,1,3.7,2.1l2.3,8.7A2.907,2.907,0,0,1,94.4,119.4Z" fill="none" stroke="#fff" stroke-miterlimit="10" stroke-width="2"/>
      <path id="Path_705" data-name="Path 705" d="M114.5,114l-8.7,2.3a3.071,3.071,0,0,1-3.7-2.1l-2.3-8.7a3.071,3.071,0,0,1,2.1-3.7l8.7-2.3a3.071,3.071,0,0,1,3.7,2.1l2.3,8.7A2.907,2.907,0,0,1,114.5,114Z" fill="none" stroke="#fff" stroke-miterlimit="10" stroke-width="2"/>
      <path id="Path_706" data-name="Path 706" d="M134.7,108.7,126,111a3.071,3.071,0,0,1-3.7-2.1l-2.3-8.7a3.071,3.071,0,0,1,2.1-3.7l8.7-2.3a3.071,3.071,0,0,1,3.7,2.1l2.3,8.7A3.071,3.071,0,0,1,134.7,108.7Z" fill="none" stroke="#fff" stroke-miterlimit="10" stroke-width="2"/>
      <path id="Path_707" data-name="Path 707" d="M154.8,103.3l-8.7,2.3a3.071,3.071,0,0,1-3.7-2.1l-2.3-8.7a3.071,3.071,0,0,1,2.1-3.7l8.7-2.3a3.071,3.071,0,0,1,3.7,2.1l2.3,8.7A3.071,3.071,0,0,1,154.8,103.3Z" fill="none" stroke="#fff" stroke-miterlimit="10" stroke-width="2"/>
      <path id="Path_708" data-name="Path 708" d="M174.9,97.9l-8.7,2.3a3.071,3.071,0,0,1-3.7-2.1l-2.3-8.7a3.071,3.071,0,0,1,2.1-3.7l8.7-2.3a3.071,3.071,0,0,1,3.7,2.1l2.3,8.7A2.99,2.99,0,0,1,174.9,97.9Z" fill="none" stroke="#fff" stroke-miterlimit="10" stroke-width="2"/>
      <path id="Path_709" data-name="Path 709" d="M59.9,151.5l-8.7,2.3a3.071,3.071,0,0,1-3.7-2.1L45.2,143a3.071,3.071,0,0,1,2.1-3.7L56,137a3.071,3.071,0,0,1,3.7,2.1l2.3,8.7A3.071,3.071,0,0,1,59.9,151.5Z" fill="none" stroke="#fff" stroke-miterlimit="10" stroke-width="2"/>
      <path id="Path_710" data-name="Path 710" d="M80,146.1l-8.7,2.3a3.071,3.071,0,0,1-3.7-2.1l-2.3-8.7a3.071,3.071,0,0,1,2.1-3.7l8.7-2.3a3.071,3.071,0,0,1,3.7,2.1l2.3,8.7A3.025,3.025,0,0,1,80,146.1Z" fill="none" stroke="#fff" stroke-miterlimit="10" stroke-width="2"/>
      <path id="Path_711" data-name="Path 711" d="M100.1,140.7,91.4,143a3.071,3.071,0,0,1-3.7-2.1l-2.3-8.7a3.071,3.071,0,0,1,2.1-3.7l8.7-2.3a3.071,3.071,0,0,1,3.7,2.1l2.3,8.7A2.948,2.948,0,0,1,100.1,140.7Z" fill="none" stroke="#fff" stroke-miterlimit="10" stroke-width="2"/>
      <path id="Path_712" data-name="Path 712" d="M120.2,135.3l-8.7,2.3a3.071,3.071,0,0,1-3.7-2.1l-2.3-8.7a3.071,3.071,0,0,1,2.1-3.7l8.7-2.3a3.071,3.071,0,0,1,3.7,2.1l2.3,8.7A2.948,2.948,0,0,1,120.2,135.3Z" fill="none" stroke="#fff" stroke-miterlimit="10" stroke-width="2"/>
    </g>
    <line id="Line_62" data-name="Line 62" y1="23.3" x2="86.9" transform="translate(46.1 26.5)" fill="none" stroke="#fff" stroke-miterlimit="10" stroke-width="2.001"/>
  </g>
</svg>
