<svg xmlns="http://www.w3.org/2000/svg" width="93.246" height="97.332" viewBox="0 0 93.246 97.332">
  <g id="Group_450" data-name="Group 450" transform="translate(-45.177 -44.333)">
    <path id="Path_794" data-name="Path 794" d="M62.5,99.8l19.3-5.2a4.887,4.887,0,0,0,3.5-6.1l-10-37.7a4.887,4.887,0,0,0-6.1-3.5L49.9,52.5a4.887,4.887,0,0,0-3.5,6.1L56.5,96.3A4.892,4.892,0,0,0,62.5,99.8Z" fill="none" stroke="#fff" stroke-miterlimit="10" stroke-width="2"/>
    <path id="Path_795" data-name="Path 795" d="M114.4,138.7l19.3-5.2a4.887,4.887,0,0,0,3.5-6.1L132,108.1a4.887,4.887,0,0,0-6.1-3.5l-19.3,5.2a4.887,4.887,0,0,0-3.5,6.1l5.2,19.3A4.951,4.951,0,0,0,114.4,138.7Z" fill="none" stroke="#fff" stroke-miterlimit="10" stroke-width="2"/>
    <line id="Line_102" data-name="Line 102" y1="7.7" x2="29" transform="translate(86.2 45.3)" fill="none" stroke="#fff" stroke-miterlimit="10" stroke-width="2"/>
    <line id="Line_103" data-name="Line 103" y1="7.8" x2="29" transform="translate(88.8 54.9)" fill="none" stroke="#fff" stroke-miterlimit="10" stroke-width="2"/>
    <line id="Line_104" data-name="Line 104" y1="7.8" x2="29" transform="translate(91.4 64.6)" fill="none" stroke="#fff" stroke-miterlimit="10" stroke-width="2"/>
    <line id="Line_105" data-name="Line 105" y1="7.7" x2="29" transform="translate(94 74.3)" fill="none" stroke="#fff" stroke-miterlimit="10" stroke-width="2"/>
    <line id="Line_106" data-name="Line 106" y1="7.8" x2="29" transform="translate(65.7 123.2)" fill="none" stroke="#fff" stroke-miterlimit="10" stroke-width="2"/>
    <line id="Line_107" data-name="Line 107" y1="7.8" x2="29" transform="translate(68.3 132.9)" fill="none" stroke="#fff" stroke-miterlimit="10" stroke-width="2"/>
    <line id="Line_108" data-name="Line 108" y1="18.1" x2="67.7" transform="translate(60.5 93.6)" fill="none" stroke="#fff" stroke-miterlimit="10" stroke-width="2"/>
  </g>
</svg>
