<svg xmlns="http://www.w3.org/2000/svg" width="93.96" height="111.332" viewBox="0 0 93.96 111.332">
  <g id="Group_325" data-name="Group 325" transform="translate(-44.741 -34.734)">
    <line id="Line_59" data-name="Line 59" y1="18.1" x2="67.6" transform="translate(68.3 122.5)" fill="none" stroke="#fff" stroke-miterlimit="10" stroke-width="2"/>
    <line id="Line_60" data-name="Line 60" y1="7.8" x2="29" transform="translate(90.2 137.3)" fill="none" stroke="#fff" stroke-miterlimit="10" stroke-width="2"/>
    <line id="Line_61" data-name="Line 61" y1="18.1" x2="67.6" transform="translate(45 35.7)" fill="none" stroke="#fff" stroke-miterlimit="10" stroke-width="2"/>
    <g id="Group_324" data-name="Group 324">
      <path id="Path_683" data-name="Path 683" d="M51.7,116.6,70,84.9a2.467,2.467,0,0,1,3.4-.9l31.7,18.3" fill="none" stroke="#fff" stroke-miterlimit="10" stroke-width="2.001"/>
      <path id="Path_684" data-name="Path 684" d="M82,89l3-5.2,7.9-13.7a2.467,2.467,0,0,1,3.4-.9l12,7,29.9,17.3" fill="none" stroke="#fff" stroke-miterlimit="10" stroke-width="2.001"/>
      <path id="Path_685" data-name="Path 685" d="M85,83.8l6.1,5.1,6.2-9.5,12.2,6.7L108.4,76" fill="none" stroke="#fff" stroke-miterlimit="10" stroke-width="2.001"/>
      <path id="Path_686" data-name="Path 686" d="M64.5,94.6l4.7,5.5,5.2-8.5,10,6.4-2-8.8" fill="none" stroke="#fff" stroke-miterlimit="10" stroke-width="2.001"/>
    </g>
  </g>
</svg>
