<svg xmlns="http://www.w3.org/2000/svg" xmlns:xlink="http://www.w3.org/1999/xlink" width="158.9" height="159.6" viewBox="0 0 158.9 159.6">
  <defs>
    <linearGradient id="linear-gradient" x1="0.399" y1="-0.014" x2="1.399" y2="-0.014" gradientUnits="objectBoundingBox">
      <stop offset="0" stop-color="#009ee2"/>
      <stop offset="1" stop-color="#f1007b"/>
    </linearGradient>
    <linearGradient id="linear-gradient-2" x1="0.439" y1="0.289" x2="1.439" y2="0.289" xlink:href="#linear-gradient"/>
    <linearGradient id="linear-gradient-3" x1="0.479" y1="0.589" x2="1.479" y2="0.589" xlink:href="#linear-gradient"/>
    <linearGradient id="linear-gradient-4" x1="0.519" y1="0.893" x2="1.519" y2="0.893" xlink:href="#linear-gradient"/>
    <linearGradient id="linear-gradient-5" x1="0.089" y1="0.026" x2="1.089" y2="0.026" xlink:href="#linear-gradient"/>
    <linearGradient id="linear-gradient-6" x1="0.129" y1="0.329" x2="1.129" y2="0.329" xlink:href="#linear-gradient"/>
    <linearGradient id="linear-gradient-7" x1="0.169" y1="0.633" x2="1.169" y2="0.633" xlink:href="#linear-gradient"/>
    <linearGradient id="linear-gradient-8" x1="0.209" y1="0.933" x2="1.209" y2="0.933" xlink:href="#linear-gradient"/>
    <linearGradient id="linear-gradient-9" x1="-0.215" y1="0.066" x2="0.785" y2="0.066" xlink:href="#linear-gradient"/>
    <linearGradient id="linear-gradient-10" x1="-0.175" y1="0.369" x2="0.825" y2="0.369" xlink:href="#linear-gradient"/>
    <linearGradient id="linear-gradient-11" x1="-0.135" y1="0.673" x2="0.865" y2="0.673" xlink:href="#linear-gradient"/>
    <linearGradient id="linear-gradient-12" x1="-0.095" y1="0.973" x2="0.905" y2="0.973" xlink:href="#linear-gradient"/>
    <linearGradient id="linear-gradient-13" x1="-0.515" y1="0.106" x2="0.485" y2="0.106" xlink:href="#linear-gradient"/>
    <linearGradient id="linear-gradient-14" x1="-0.475" y1="0.409" x2="0.525" y2="0.409" xlink:href="#linear-gradient"/>
    <linearGradient id="linear-gradient-15" x1="-0.435" y1="0.713" x2="0.565" y2="0.713" xlink:href="#linear-gradient"/>
    <linearGradient id="linear-gradient-16" x1="-0.398" y1="1.013" x2="0.602" y2="1.013" xlink:href="#linear-gradient"/>
  </defs>
  <g id="Group_452" data-name="Group 452" transform="translate(-8.3 -8.1)">
    <g id="Group_451" data-name="Group 451">
      <circle id="Ellipse_55" data-name="Ellipse 55" cx="15" cy="15" r="15" transform="translate(8.3 35.3)" fill="url(#linear-gradient)"/>
      <circle id="Ellipse_56" data-name="Ellipse 56" cx="15" cy="15" r="15" transform="translate(42.1 26.2)" fill="url(#linear-gradient-2)"/>
      <circle id="Ellipse_57" data-name="Ellipse 57" cx="15" cy="15" r="15" transform="translate(75.9 17.2)" fill="url(#linear-gradient-3)"/>
      <circle id="Ellipse_58" data-name="Ellipse 58" cx="15" cy="15" r="15" transform="translate(109.7 8.1)" fill="url(#linear-gradient-4)"/>
      <circle id="Ellipse_59" data-name="Ellipse 59" cx="15" cy="15" r="15" transform="translate(17.6 70.1)" fill="url(#linear-gradient-5)"/>
      <circle id="Ellipse_60" data-name="Ellipse 60" cx="15" cy="15" r="15" transform="translate(51.4 61)" fill="url(#linear-gradient-6)"/>
      <circle id="Ellipse_61" data-name="Ellipse 61" cx="15" cy="15" r="15" transform="translate(85.2 51.9)" fill="url(#linear-gradient-7)"/>
      <circle id="Ellipse_62" data-name="Ellipse 62" cx="15" cy="15" r="15" transform="translate(119 42.9)" fill="url(#linear-gradient-8)"/>
      <circle id="Ellipse_63" data-name="Ellipse 63" cx="15" cy="15" r="15" transform="translate(26.7 103.9)" fill="url(#linear-gradient-9)"/>
      <circle id="Ellipse_64" data-name="Ellipse 64" cx="15" cy="15" r="15" transform="translate(60.5 94.8)" fill="url(#linear-gradient-10)"/>
      <circle id="Ellipse_65" data-name="Ellipse 65" cx="15" cy="15" r="15" transform="translate(94.3 85.7)" fill="url(#linear-gradient-11)"/>
      <circle id="Ellipse_66" data-name="Ellipse 66" cx="15" cy="15" r="15" transform="translate(128.1 76.7)" fill="url(#linear-gradient-12)"/>
      <circle id="Ellipse_67" data-name="Ellipse 67" cx="15" cy="15" r="15" transform="translate(35.7 137.7)" fill="url(#linear-gradient-13)"/>
      <circle id="Ellipse_68" data-name="Ellipse 68" cx="15" cy="15" r="15" transform="translate(69.5 128.6)" fill="url(#linear-gradient-14)"/>
      <circle id="Ellipse_69" data-name="Ellipse 69" cx="15" cy="15" r="15" transform="translate(103.3 119.5)" fill="url(#linear-gradient-15)"/>
      <circle id="Ellipse_70" data-name="Ellipse 70" cx="15" cy="15" r="15" transform="translate(137.2 110.5)" fill="url(#linear-gradient-16)"/>
    </g>
    <g id="Group_334" data-name="Group 334">
      <g id="Group_332" data-name="Group 332">
        <line id="Line_66" data-name="Line 66" y1="4.9" x2="18.3" transform="translate(15.2 51.7)" fill="none" stroke="#fff" stroke-linecap="square" stroke-miterlimit="10" stroke-width="0.283"/>
        <line id="Line_67" data-name="Line 67" y1="2.9" x2="10.6" transform="translate(19.8 55.6)" fill="none" stroke="#fff" stroke-linecap="square" stroke-miterlimit="10" stroke-width="0.283"/>
      </g>
      <g id="Group_333" data-name="Group 333">
        <path id="Path_716" data-name="Path 716" d="M13.6,53.9l4.2-7.2a.54.54,0,0,1,.8-.2l7.2,4.2" fill="none" stroke="#fff" stroke-miterlimit="10" stroke-width="0.283"/>
        <path id="Path_717" data-name="Path 717" d="M20.6,47.6l.7-1.2,1.8-3.1a.54.54,0,0,1,.8-.2l2.8,1.6,6.8,3.9" fill="none" stroke="#fff" stroke-miterlimit="10" stroke-width="0.283"/>
        <path id="Path_718" data-name="Path 718" d="M21.3,46.4l1.4,1.1,1.4-2.1,2.8,1.5-.3-2.3" fill="none" stroke="#fff" stroke-miterlimit="10" stroke-width="0.283"/>
        <path id="Path_719" data-name="Path 719" d="M16.6,48.8l1,1.3,1.2-2,2.3,1.5-.4-2" fill="none" stroke="#fff" stroke-miterlimit="10" stroke-width="0.283"/>
      </g>
    </g>
    <g id="Group_337" data-name="Group 337">
      <g id="Group_335" data-name="Group 335">
        <line id="Line_68" data-name="Line 68" y1="4.9" x2="18.3" transform="translate(49 42.7)" fill="none" stroke="#fff" stroke-linecap="square" stroke-miterlimit="10" stroke-width="0.283"/>
        <line id="Line_69" data-name="Line 69" y1="2.8" x2="10.6" transform="translate(53.6 46.6)" fill="none" stroke="#fff" stroke-linecap="square" stroke-miterlimit="10" stroke-width="0.283"/>
      </g>
      <g id="Group_336" data-name="Group 336">
        <path id="Path_720" data-name="Path 720" d="M47.5,44.8l4.2-7.2a.54.54,0,0,1,.8-.2l7.2,4.2" fill="none" stroke="#fff" stroke-miterlimit="10" stroke-width="0.283"/>
        <path id="Path_721" data-name="Path 721" d="M54.4,38.5l.7-1.2,1.8-3.1a.54.54,0,0,1,.8-.2l2.8,1.6,6.8,3.9" fill="none" stroke="#fff" stroke-miterlimit="10" stroke-width="0.283"/>
        <path id="Path_722" data-name="Path 722" d="M55.1,37.3l1.4,1.2,1.4-2.2,2.8,1.5-.3-2.3" fill="none" stroke="#fff" stroke-miterlimit="10" stroke-width="0.283"/>
        <path id="Path_723" data-name="Path 723" d="M50.4,39.8,51.5,41l1.1-1.9,2.3,1.5-.4-2.1" fill="none" stroke="#fff" stroke-miterlimit="10" stroke-width="0.283"/>
      </g>
    </g>
    <g id="Group_340" data-name="Group 340">
      <g id="Group_338" data-name="Group 338">
        <line id="Line_70" data-name="Line 70" y1="4.9" x2="18.4" transform="translate(82.5 33.7)" fill="none" stroke="#fff" stroke-linecap="square" stroke-miterlimit="10" stroke-width="0.283"/>
        <line id="Line_71" data-name="Line 71" y1="2.8" x2="10.6" transform="translate(87.2 37.6)" fill="none" stroke="#fff" stroke-linecap="square" stroke-miterlimit="10" stroke-width="0.283"/>
      </g>
      <g id="Group_339" data-name="Group 339">
        <path id="Path_724" data-name="Path 724" d="M81,35.8l4.2-7.2a.54.54,0,0,1,.8-.2l7.2,4.2" fill="none" stroke="#fff" stroke-miterlimit="10" stroke-width="0.283"/>
        <path id="Path_725" data-name="Path 725" d="M88,29.5l.7-1.2,1.8-3.1a.54.54,0,0,1,.8-.2l2.8,1.6,6.8,3.9" fill="none" stroke="#fff" stroke-miterlimit="10" stroke-width="0.283"/>
        <path id="Path_726" data-name="Path 726" d="M88.6,28.3,90,29.5l1.5-2.2,2.7,1.5L94,26.5" fill="none" stroke="#fff" stroke-miterlimit="10" stroke-width="0.283"/>
        <path id="Path_727" data-name="Path 727" d="M84,30.8,85,32l1.2-1.9,2.3,1.5L88,29.5" fill="none" stroke="#fff" stroke-miterlimit="10" stroke-width="0.283"/>
      </g>
    </g>
    <g id="Group_343" data-name="Group 343">
      <g id="Group_341" data-name="Group 341">
        <line id="Line_72" data-name="Line 72" y1="4.9" x2="18.4" transform="translate(116.1 24.7)" fill="none" stroke="#fff" stroke-linecap="square" stroke-miterlimit="10" stroke-width="0.283"/>
        <line id="Line_73" data-name="Line 73" y1="2.8" x2="10.7" transform="translate(120.7 28.6)" fill="none" stroke="#fff" stroke-linecap="square" stroke-miterlimit="10" stroke-width="0.283"/>
      </g>
      <g id="Group_342" data-name="Group 342">
        <path id="Path_728" data-name="Path 728" d="M114.6,26.8l4.2-7.2a.54.54,0,0,1,.8-.2l7.2,4.2" fill="none" stroke="#fff" stroke-miterlimit="10" stroke-width="0.283"/>
        <path id="Path_729" data-name="Path 729" d="M121.5,20.5l.7-1.2,1.8-3.1a.54.54,0,0,1,.8-.2l2.8,1.6,6.8,3.9" fill="none" stroke="#fff" stroke-miterlimit="10" stroke-width="0.283"/>
        <path id="Path_730" data-name="Path 730" d="M122.2,19.3l1.4,1.2,1.4-2.2,2.8,1.5-.3-2.3" fill="none" stroke="#fff" stroke-miterlimit="10" stroke-width="0.283"/>
        <path id="Path_731" data-name="Path 731" d="M117.5,21.8l1.1,1.2,1.2-1.9,2.3,1.5-.5-2" fill="none" stroke="#fff" stroke-miterlimit="10" stroke-width="0.283"/>
      </g>
    </g>
    <g id="Group_346" data-name="Group 346">
      <g id="Group_344" data-name="Group 344">
        <line id="Line_74" data-name="Line 74" y1="4.9" x2="18.3" transform="translate(24.5 86.5)" fill="none" stroke="#fff" stroke-linecap="square" stroke-miterlimit="10" stroke-width="0.283"/>
        <line id="Line_75" data-name="Line 75" y1="2.9" x2="10.6" transform="translate(29.1 90.4)" fill="none" stroke="#fff" stroke-linecap="square" stroke-miterlimit="10" stroke-width="0.283"/>
      </g>
      <g id="Group_345" data-name="Group 345">
        <path id="Path_732" data-name="Path 732" d="M23,88.6l4.2-7.2a.54.54,0,0,1,.8-.2l7.2,4.2" fill="none" stroke="#fff" stroke-miterlimit="10" stroke-width="0.283"/>
        <path id="Path_733" data-name="Path 733" d="M29.9,82.3l.7-1.2L32.4,78a.54.54,0,0,1,.8-.2L36,79.4l6.8,3.9" fill="none" stroke="#fff" stroke-miterlimit="10" stroke-width="0.283"/>
        <path id="Path_734" data-name="Path 734" d="M30.6,81.1,32,82.3l1.4-2.2,2.8,1.6-.3-2.3" fill="none" stroke="#fff" stroke-miterlimit="10" stroke-width="0.283"/>
        <path id="Path_735" data-name="Path 735" d="M25.9,83.6,27,84.9l1.2-2,2.2,1.5-.4-2" fill="none" stroke="#fff" stroke-miterlimit="10" stroke-width="0.283"/>
      </g>
    </g>
    <g id="Group_349" data-name="Group 349">
      <g id="Group_347" data-name="Group 347">
        <line id="Line_76" data-name="Line 76" y1="4.9" x2="18.3" transform="translate(58.3 77.4)" fill="none" stroke="#fff" stroke-linecap="square" stroke-miterlimit="10" stroke-width="0.283"/>
        <line id="Line_77" data-name="Line 77" y1="2.8" x2="10.7" transform="translate(62.9 81.4)" fill="none" stroke="#fff" stroke-linecap="square" stroke-miterlimit="10" stroke-width="0.283"/>
      </g>
      <g id="Group_348" data-name="Group 348">
        <path id="Path_736" data-name="Path 736" d="M56.8,79.6,61,72.4a.54.54,0,0,1,.8-.2L69,76.4" fill="none" stroke="#fff" stroke-miterlimit="10" stroke-width="0.283"/>
        <path id="Path_737" data-name="Path 737" d="M63.7,73.3l.7-1.2L66.2,69a.54.54,0,0,1,.8-.2l2.8,1.6,6.8,3.9" fill="none" stroke="#fff" stroke-miterlimit="10" stroke-width="0.283"/>
        <path id="Path_738" data-name="Path 738" d="M64.4,72.1l1.4,1.2,1.4-2.2L70,72.6l-.3-2.3" fill="none" stroke="#fff" stroke-miterlimit="10" stroke-width="0.283"/>
        <path id="Path_739" data-name="Path 739" d="M59.7,74.6l1.1,1.2L62,73.9l2.3,1.4-.5-2" fill="none" stroke="#fff" stroke-miterlimit="10" stroke-width="0.283"/>
      </g>
    </g>
    <g id="Group_352" data-name="Group 352">
      <g id="Group_350" data-name="Group 350">
        <line id="Line_78" data-name="Line 78" y1="4.9" x2="18.3" transform="translate(91.9 68.4)" fill="none" stroke="#fff" stroke-linecap="square" stroke-miterlimit="10" stroke-width="0.283"/>
        <line id="Line_79" data-name="Line 79" y1="2.8" x2="10.6" transform="translate(96.5 72.4)" fill="none" stroke="#fff" stroke-linecap="square" stroke-miterlimit="10" stroke-width="0.283"/>
      </g>
      <g id="Group_351" data-name="Group 351">
        <path id="Path_740" data-name="Path 740" d="M90.3,70.6l4.2-7.2a.54.54,0,0,1,.8-.2l7.2,4.2" fill="none" stroke="#fff" stroke-miterlimit="10" stroke-width="0.283"/>
        <path id="Path_741" data-name="Path 741" d="M97.3,64.3l.7-1.2L99.8,60a.54.54,0,0,1,.8-.2l2.8,1.6,6.8,3.9" fill="none" stroke="#fff" stroke-miterlimit="10" stroke-width="0.283"/>
        <path id="Path_742" data-name="Path 742" d="M98,63.1l1.3,1.2,1.5-2.2,2.8,1.5-.3-2.3" fill="none" stroke="#fff" stroke-miterlimit="10" stroke-width="0.283"/>
        <path id="Path_743" data-name="Path 743" d="M93.3,65.6l1,1.2,1.2-1.9,2.3,1.4-.4-2" fill="none" stroke="#fff" stroke-miterlimit="10" stroke-width="0.283"/>
      </g>
    </g>
    <g id="Group_355" data-name="Group 355">
      <g id="Group_353" data-name="Group 353">
        <line id="Line_80" data-name="Line 80" y1="5" x2="18.4" transform="translate(125.4 59.4)" fill="none" stroke="#fff" stroke-linecap="square" stroke-miterlimit="10" stroke-width="0.283"/>
        <line id="Line_81" data-name="Line 81" y1="2.8" x2="10.6" transform="translate(130.1 63.4)" fill="none" stroke="#fff" stroke-linecap="square" stroke-miterlimit="10" stroke-width="0.283"/>
      </g>
      <g id="Group_354" data-name="Group 354">
        <path id="Path_744" data-name="Path 744" d="M123.9,61.6l4.2-7.2a.54.54,0,0,1,.8-.2l7.2,4.2" fill="none" stroke="#fff" stroke-miterlimit="10" stroke-width="0.283"/>
        <path id="Path_745" data-name="Path 745" d="M130.8,55.3l.7-1.2,1.8-3.1a.54.54,0,0,1,.8-.2l2.8,1.6,6.8,3.9" fill="none" stroke="#fff" stroke-miterlimit="10" stroke-width="0.283"/>
        <path id="Path_746" data-name="Path 746" d="M131.5,54.1l1.4,1.2,1.4-2.2,2.8,1.5-.2-2.3" fill="none" stroke="#fff" stroke-miterlimit="10" stroke-width="0.283"/>
        <path id="Path_747" data-name="Path 747" d="M126.8,56.6l1.1,1.2,1.2-1.9,2.3,1.4-.5-2" fill="none" stroke="#fff" stroke-miterlimit="10" stroke-width="0.283"/>
      </g>
    </g>
    <g id="Group_358" data-name="Group 358">
      <g id="Group_356" data-name="Group 356">
        <line id="Line_82" data-name="Line 82" y1="4.9" x2="18.4" transform="translate(33.5 120.3)" fill="none" stroke="#fff" stroke-linecap="square" stroke-miterlimit="10" stroke-width="0.283"/>
        <line id="Line_83" data-name="Line 83" y1="2.9" x2="10.6" transform="translate(38.2 124.2)" fill="none" stroke="#fff" stroke-linecap="square" stroke-miterlimit="10" stroke-width="0.283"/>
      </g>
      <g id="Group_357" data-name="Group 357">
        <path id="Path_748" data-name="Path 748" d="M32,122.5l4.2-7.2a.54.54,0,0,1,.8-.2l7.2,4.2" fill="none" stroke="#fff" stroke-miterlimit="10" stroke-width="0.283"/>
        <path id="Path_749" data-name="Path 749" d="M39,116.1l.7-1.2,1.8-3.1a.54.54,0,0,1,.8-.2l2.8,1.6,6.8,3.9" fill="none" stroke="#fff" stroke-miterlimit="10" stroke-width="0.283"/>
        <path id="Path_750" data-name="Path 750" d="M39.6,114.9l1.4,1.2,1.5-2.1,2.7,1.5-.2-2.3" fill="none" stroke="#fff" stroke-miterlimit="10" stroke-width="0.283"/>
        <path id="Path_751" data-name="Path 751" d="M35,117.4l1,1.3,1.2-2,2.3,1.5-.4-2" fill="none" stroke="#fff" stroke-miterlimit="10" stroke-width="0.283"/>
      </g>
    </g>
    <g id="Group_361" data-name="Group 361">
      <g id="Group_359" data-name="Group 359">
        <line id="Line_84" data-name="Line 84" y1="5" x2="18.4" transform="translate(67.3 111.2)" fill="none" stroke="#fff" stroke-linecap="square" stroke-miterlimit="10" stroke-width="0.283"/>
        <line id="Line_85" data-name="Line 85" y1="2.8" x2="10.6" transform="translate(72 115.2)" fill="none" stroke="#fff" stroke-linecap="square" stroke-miterlimit="10" stroke-width="0.283"/>
      </g>
      <g id="Group_360" data-name="Group 360">
        <path id="Path_752" data-name="Path 752" d="M65.8,113.4l4.2-7.2a.54.54,0,0,1,.8-.2l7.2,4.2" fill="none" stroke="#fff" stroke-miterlimit="10" stroke-width="0.283"/>
        <path id="Path_753" data-name="Path 753" d="M72.8,107.1l.7-1.2,1.8-3.1a.54.54,0,0,1,.8-.2l2.8,1.6,6.8,3.9" fill="none" stroke="#fff" stroke-miterlimit="10" stroke-width="0.283"/>
        <path id="Path_754" data-name="Path 754" d="M73.5,105.9l1.3,1.2,1.5-2.2,2.8,1.5-.3-2.3" fill="none" stroke="#fff" stroke-miterlimit="10" stroke-width="0.283"/>
        <path id="Path_755" data-name="Path 755" d="M68.8,108.4l1,1.2,1.2-1.9,2.3,1.4-.4-2" fill="none" stroke="#fff" stroke-miterlimit="10" stroke-width="0.283"/>
      </g>
    </g>
    <g id="Group_364" data-name="Group 364">
      <g id="Group_362" data-name="Group 362">
        <line id="Line_86" data-name="Line 86" y1="5" x2="18.4" transform="translate(100.9 102.2)" fill="none" stroke="#fff" stroke-linecap="square" stroke-miterlimit="10" stroke-width="0.283"/>
        <line id="Line_87" data-name="Line 87" y1="2.8" x2="10.6" transform="translate(105.6 106.2)" fill="none" stroke="#fff" stroke-linecap="square" stroke-miterlimit="10" stroke-width="0.283"/>
      </g>
      <g id="Group_363" data-name="Group 363">
        <path id="Path_756" data-name="Path 756" d="M99.4,104.4l4.2-7.2a.54.54,0,0,1,.8-.2l7.2,4.2" fill="none" stroke="#fff" stroke-miterlimit="10" stroke-width="0.283"/>
        <path id="Path_757" data-name="Path 757" d="M106.3,98.1l.7-1.2,1.8-3.1a.54.54,0,0,1,.8-.2l2.8,1.6,6.8,3.9" fill="none" stroke="#fff" stroke-miterlimit="10" stroke-width="0.283"/>
        <path id="Path_758" data-name="Path 758" d="M107,96.9l1.4,1.2,1.4-2.2,2.8,1.5-.2-2.3" fill="none" stroke="#fff" stroke-miterlimit="10" stroke-width="0.283"/>
        <path id="Path_759" data-name="Path 759" d="M102.3,99.4l1.1,1.2,1.2-1.9,2.3,1.4-.5-2" fill="none" stroke="#fff" stroke-miterlimit="10" stroke-width="0.283"/>
      </g>
    </g>
    <g id="Group_367" data-name="Group 367">
      <g id="Group_365" data-name="Group 365">
        <line id="Line_88" data-name="Line 88" y1="5" x2="18.3" transform="translate(134.5 93.2)" fill="none" stroke="#fff" stroke-linecap="square" stroke-miterlimit="10" stroke-width="0.283"/>
        <line id="Line_89" data-name="Line 89" y1="2.8" x2="10.6" transform="translate(139.1 97.2)" fill="none" stroke="#fff" stroke-linecap="square" stroke-miterlimit="10" stroke-width="0.283"/>
      </g>
      <g id="Group_366" data-name="Group 366">
        <path id="Path_760" data-name="Path 760" d="M133,95.4l4.2-7.2a.54.54,0,0,1,.8-.2l7.2,4.2" fill="none" stroke="#fff" stroke-miterlimit="10" stroke-width="0.283"/>
        <path id="Path_761" data-name="Path 761" d="M139.9,89.1l.7-1.2,1.8-3.1a.54.54,0,0,1,.8-.2l2.8,1.6,6.8,3.9" fill="none" stroke="#fff" stroke-miterlimit="10" stroke-width="0.283"/>
        <path id="Path_762" data-name="Path 762" d="M140.6,87.9l1.4,1.2,1.4-2.2,2.8,1.5-.3-2.3" fill="none" stroke="#fff" stroke-miterlimit="10" stroke-width="0.283"/>
        <path id="Path_763" data-name="Path 763" d="M135.9,90.4l1.1,1.2,1.2-1.9,2.2,1.4-.4-2" fill="none" stroke="#fff" stroke-miterlimit="10" stroke-width="0.283"/>
      </g>
    </g>
    <g id="Group_370" data-name="Group 370">
      <g id="Group_368" data-name="Group 368">
        <line id="Line_90" data-name="Line 90" y1="4.9" x2="18.4" transform="translate(42.6 154.1)" fill="none" stroke="#fff" stroke-linecap="square" stroke-miterlimit="10" stroke-width="0.283"/>
        <line id="Line_91" data-name="Line 91" y1="2.9" x2="10.7" transform="translate(47.2 158)" fill="none" stroke="#fff" stroke-linecap="square" stroke-miterlimit="10" stroke-width="0.283"/>
      </g>
      <g id="Group_369" data-name="Group 369">
        <path id="Path_764" data-name="Path 764" d="M41.1,156.3l4.2-7.2a.54.54,0,0,1,.8-.2l7.2,4.2" fill="none" stroke="#fff" stroke-miterlimit="10" stroke-width="0.283"/>
        <path id="Path_765" data-name="Path 765" d="M48,149.9l.7-1.2,1.8-3.1a.54.54,0,0,1,.8-.2l2.8,1.6,6.8,3.9" fill="none" stroke="#fff" stroke-miterlimit="10" stroke-width="0.283"/>
        <path id="Path_766" data-name="Path 766" d="M48.7,148.8l1.4,1.1,1.4-2.1,2.8,1.5L54,147" fill="none" stroke="#fff" stroke-miterlimit="10" stroke-width="0.283"/>
        <path id="Path_767" data-name="Path 767" d="M44,151.2l1.1,1.3,1.2-2,2.3,1.5-.5-2" fill="none" stroke="#fff" stroke-miterlimit="10" stroke-width="0.283"/>
      </g>
    </g>
    <g id="Group_373" data-name="Group 373">
      <g id="Group_371" data-name="Group 371">
        <line id="Line_92" data-name="Line 92" y1="5" x2="18.4" transform="translate(76.4 145)" fill="none" stroke="#fff" stroke-linecap="square" stroke-miterlimit="10" stroke-width="0.283"/>
        <line id="Line_93" data-name="Line 93" y1="2.8" x2="10.7" transform="translate(81 149)" fill="none" stroke="#fff" stroke-linecap="square" stroke-miterlimit="10" stroke-width="0.283"/>
      </g>
      <g id="Group_372" data-name="Group 372">
        <path id="Path_768" data-name="Path 768" d="M74.9,147.2l4.2-7.2a.54.54,0,0,1,.8-.2l7.2,4.2" fill="none" stroke="#fff" stroke-miterlimit="10" stroke-width="0.283"/>
        <path id="Path_769" data-name="Path 769" d="M81.8,140.9l.7-1.2,1.8-3.1a.54.54,0,0,1,.8-.2l2.8,1.6,6.8,3.9" fill="none" stroke="#fff" stroke-miterlimit="10" stroke-width="0.283"/>
        <path id="Path_770" data-name="Path 770" d="M82.5,139.7l1.4,1.2,1.4-2.2,2.8,1.5-.2-2.3" fill="none" stroke="#fff" stroke-miterlimit="10" stroke-width="0.283"/>
        <path id="Path_771" data-name="Path 771" d="M77.8,142.2l1.1,1.2,1.2-1.9,2.3,1.4-.5-2" fill="none" stroke="#fff" stroke-miterlimit="10" stroke-width="0.283"/>
      </g>
    </g>
    <g id="Group_376" data-name="Group 376">
      <g id="Group_374" data-name="Group 374">
        <line id="Line_94" data-name="Line 94" y1="5" x2="18.3" transform="translate(110 136)" fill="none" stroke="#fff" stroke-linecap="square" stroke-miterlimit="10" stroke-width="0.283"/>
        <line id="Line_95" data-name="Line 95" y1="2.8" x2="10.6" transform="translate(114.6 140)" fill="none" stroke="#fff" stroke-linecap="square" stroke-miterlimit="10" stroke-width="0.283"/>
      </g>
      <g id="Group_375" data-name="Group 375">
        <path id="Path_772" data-name="Path 772" d="M108.5,138.2l4.2-7.2a.54.54,0,0,1,.8-.2l7.2,4.2" fill="none" stroke="#fff" stroke-miterlimit="10" stroke-width="0.283"/>
        <path id="Path_773" data-name="Path 773" d="M115.4,131.9l.7-1.2,1.8-3.1a.54.54,0,0,1,.8-.2l2.8,1.6,6.8,3.9" fill="none" stroke="#fff" stroke-miterlimit="10" stroke-width="0.283"/>
        <path id="Path_774" data-name="Path 774" d="M116.1,130.7l1.4,1.2,1.4-2.2,2.8,1.5-.3-2.3" fill="none" stroke="#fff" stroke-miterlimit="10" stroke-width="0.283"/>
        <path id="Path_775" data-name="Path 775" d="M111.4,133.2l1.1,1.2,1.1-1.9,2.3,1.4-.4-2" fill="none" stroke="#fff" stroke-miterlimit="10" stroke-width="0.283"/>
      </g>
    </g>
    <g id="Group_379" data-name="Group 379">
      <g id="Group_378" data-name="Group 378">
        <path id="Path_776" data-name="Path 776" d="M142,129.2l4.2-7.2a.54.54,0,0,1,.8-.2l7.2,4.2" fill="none" stroke="#fff" stroke-miterlimit="10" stroke-width="0.283"/>
        <path id="Path_777" data-name="Path 777" d="M149,122.9l.7-1.2,1.8-3.1a.54.54,0,0,1,.8-.2l2.8,1.6,6.8,3.9" fill="none" stroke="#fff" stroke-miterlimit="10" stroke-width="0.283"/>
        <path id="Path_778" data-name="Path 778" d="M149.6,121.7l1.4,1.2,1.5-2.2,2.7,1.5-.2-2.3" fill="none" stroke="#fff" stroke-miterlimit="10" stroke-width="0.283"/>
        <path id="Path_779" data-name="Path 779" d="M145,124.2l1,1.2,1.2-1.9,2.3,1.5-.5-2.1" fill="none" stroke="#fff" stroke-miterlimit="10" stroke-width="0.283"/>
      </g>
    </g>
  </g>
</svg>
