<svg xmlns="http://www.w3.org/2000/svg" width="20.195" height="15.921" viewBox="0 0 20.195 15.921">
  <g id="Group_370" data-name="Group 370" transform="translate(-40.977 -145.153)">
    <g id="Group_368" data-name="Group 368">
      <line id="Line_90" data-name="Line 90" y1="4.9" x2="18.4" transform="translate(42.6 154.1)" fill="none" stroke="#fff" stroke-linecap="square" stroke-miterlimit="10" stroke-width="0.283"/>
      <line id="Line_91" data-name="Line 91" y1="2.9" x2="10.7" transform="translate(47.2 158)" fill="none" stroke="#fff" stroke-linecap="square" stroke-miterlimit="10" stroke-width="0.283"/>
    </g>
    <g id="Group_369" data-name="Group 369">
      <path id="Path_764" data-name="Path 764" d="M41.1,156.3l4.2-7.2a.54.54,0,0,1,.8-.2l7.2,4.2" fill="none" stroke="#fff" stroke-miterlimit="10" stroke-width="0.283"/>
      <path id="Path_765" data-name="Path 765" d="M48,149.9l.7-1.2,1.8-3.1a.54.54,0,0,1,.8-.2l2.8,1.6,6.8,3.9" fill="none" stroke="#fff" stroke-miterlimit="10" stroke-width="0.283"/>
      <path id="Path_766" data-name="Path 766" d="M48.7,148.8l1.4,1.1,1.4-2.1,2.8,1.5L54,147" fill="none" stroke="#fff" stroke-miterlimit="10" stroke-width="0.283"/>
      <path id="Path_767" data-name="Path 767" d="M44,151.2l1.1,1.3,1.2-2,2.3,1.5-.5-2" fill="none" stroke="#fff" stroke-miterlimit="10" stroke-width="0.283"/>
    </g>
  </g>
</svg>
